<svg aria-hidden="true" style="position: absolute; width: 0; height: 0; overflow: hidden;" version="1.1" xmlns="http://www.w3.org/2000/svg" xmlns:xlink="http://www.w3.org/1999/xlink">
<defs>
<symbol id="icon-close" viewBox="0 0 30 30">
<path stroke-linejoin="miter" stroke-linecap="butt" stroke-miterlimit="4" stroke-width="2" d="M8 8l14 14"></path>
<path stroke-linejoin="miter" stroke-linecap="butt" stroke-miterlimit="4" stroke-width="2" d="M8 22l14-14"></path>
</symbol>
<symbol id="icon-arrow-up" viewBox="0 0 30 30">
<path d="M25.701 11.799l-9.375-9.375c-0.732-0.732-1.919-0.732-2.652 0l-9.375 9.375c-0.732 0.732-0.732 1.919 0 2.652s1.919 0.732 2.652 0l6.174-6.174v17.973c0 1.036 0.839 1.875 1.875 1.875s1.875-0.839 1.875-1.875v-17.973l6.174 6.174c0.366 0.366 0.846 0.549 1.326 0.549s0.96-0.183 1.326-0.549c0.732-0.732 0.732-1.919 0-2.652z"></path>
</symbol>
</defs>
</svg>
